<?xml version="1.0" encoding="UTF-8"?>
<svg id="t1" xmlns="http://www.w3.org/2000/svg" xmlns:xlink="http://www.w3.org/1999/xlink" version="1.1" viewBox="0 0 1024 1024">
  <!-- Generator: Adobe Illustrator 29.0.1, SVG Export Plug-In . SVG Version: 2.1.0 Build 192)  -->
  <defs>
    <style>
      .st0 {
        fill: url(#_未命名的渐变_2);
      }

      .st1 {
        fill: url(#_未命名的渐变_9);
      }

      .st2 {
        fill: #1cbeb7;
      }

      .st3 {
        fill: url(#_未命名的渐变_11);
      }

      .st4 {
        fill: url(#_未命名的渐变_21);
      }

      .st5 {
        fill: url(#_未命名的渐变_30);
      }

      .st6 {
        fill: url(#_未命名的渐变_33);
      }
    </style>
    <linearGradient id="_未命名的渐变_2" data-name="未命名的渐变 2" x1="533.4" y1="542.26" x2="-61.77" y2="365.82" gradientUnits="userSpaceOnUse">
      <stop offset="0" stop-color="#fec02a"/>
      <stop offset=".14" stop-color="#fdc113"/>
      <stop offset=".58" stop-color="#f54448"/>
      <stop offset="1" stop-color="#ec1961"/>
    </linearGradient>
    <linearGradient id="_未命名的渐变_30" data-name="未命名的渐变 30" x1="815.7" y1="641.32" x2="549.24" y2="349.82" gradientUnits="userSpaceOnUse">
      <stop offset="0" stop-color="#393293"/>
      <stop offset=".13" stop-color="#313ca9"/>
      <stop offset=".7" stop-color="#0894c6"/>
      <stop offset=".93" stop-color="#00b7d1"/>
    </linearGradient>
    <linearGradient id="_未命名的渐变_9" data-name="未命名的渐变 9" x1="252.7" y1="536.6" x2="692.48" y2="536.6" gradientUnits="userSpaceOnUse">
      <stop offset="0" stop-color="#01a783"/>
      <stop offset="1" stop-color="#00839a"/>
    </linearGradient>
    <linearGradient id="_未命名的渐变_21" data-name="未命名的渐变 21" x1="578.06" y1="258.71" x2="427.08" y2="213.96" gradientUnits="userSpaceOnUse">
      <stop offset="0" stop-color="#f86732"/>
      <stop offset="1" stop-color="#f86a27"/>
    </linearGradient>
    <linearGradient id="_未命名的渐变_33" data-name="未命名的渐变 33" x1="529.42" y1="237.47" x2="430.9" y2="235.35" gradientUnits="userSpaceOnUse">
      <stop offset="0" stop-color="#f41d41" stop-opacity=".5"/>
      <stop offset="1" stop-color="#fa6e2d" stop-opacity=".8"/>
    </linearGradient>
    <linearGradient id="_未命名的渐变_11" data-name="未命名的渐变 11" x1="542.2" y1="431.57" x2="473.18" y2="411.11" gradientUnits="userSpaceOnUse">
      <stop offset="0" stop-color="#01adbc"/>
      <stop offset="1" stop-color="#0c729e"/>
    </linearGradient>
  </defs>
  <g id="ALL">
    <g id="V">
      <path id="left" class="st0" d="M390.05,927.53L25.94,177.43C-2.23,119.41,22.2,48.88,80.23,20.71l11.15-5.41c58.03-28.17,128.56-3.73,156.72,54.29l264.12,544.1-122.17,313.85Z"/>
      <path id="right" class="st5" d="M998.06,179.24l-366.64,755.28-10.54,21.71c-1.57,3.21-3.53,7.18-5.09,9.33-8.56,11.79-26.02,28.83-44.39,37.75l-11.15,5.41c-26.58,12.9-55.77,14.76-82.31,7.42-4.66-1.55-9.26-3.43-13.77-5.61l-11.15-5.41c-5.61-2.72-10.92-5.85-15.88-9.35-13.86-10.66-25.5-24.61-33.61-41.34l-28.51-58.75,137.64-281.98L775.9,71.39c28.17-58.03,98.7-82.46,156.72-54.29l11.15,5.41c58.03,28.17,82.46,98.7,54.29,156.72Z"/>
      <g id="center">
        <path class="st2" d="M676.03,277.14s142.54,453-285.98,650.39l-137.35-282.95s168,123.49,259.97-30.89l163.36-336.55Z"/>
        <path class="st1" d="M676.03,277.14s131.64,364.13-349.8,518.91l-73.53-151.48s171.44,122.81,259.52-30.89l163.8-336.55Z"/>
      </g>
    </g>
    <g id="dot">
      <g>
        <path class="st4" d="M575.15,239.13c0,34.88-28.27,63.15-63.15,63.15-12.11,0-23.4-3.41-33-9.31-18.08-11.1-30.15-31.05-30.15-53.84,0-27.05,17-50.12,40.9-59.11,6.91-2.62,14.42-4.04,22.25-4.04,34.88,0,63.15,28.27,63.15,63.15Z"/>
        <path class="st6" d="M527.25,234.97c0,28.92-20.8,52.96-48.25,58.01-18.08-11.1-30.15-31.05-30.15-53.84,0-27.05,17-50.12,40.9-59.11,21.94,8.57,37.49,29.93,37.49,54.94Z"/>
      </g>
      <circle class="st3" cx="512" cy="422.62" r="28.87"/>
    </g>
  </g>
</svg>